<svg xmlns="http://www.w3.org/2000/svg" width="1213" height="217" viewBox="0 0 1213 217" fill="none"><g clip-path="url(#clip0_243_934)"><path d="M5.34604 70.6521C8.88122 65.5252 13.8391 61.5653 20.2197 58.8142C26.7296 56.3133 32.7653 55.1045 38.3698 55.1045C47.8976 55.1045 58.1152 57.6471 69.0225 62.7741L68.8069 87.1168C61.5641 82.2816 56.0458 79.1137 52.3382 77.5715C48.6305 76.0292 44.4486 75.2789 39.7494 75.2789C34.4467 75.2789 30.1355 76.446 26.8158 78.7803C23.4962 81.1145 21.8148 84.0323 21.8148 87.5753C21.8148 89.7845 22.8926 91.6602 25.0051 93.2858C28.6265 95.62 34.1018 97.7459 41.3446 99.6633C49.8377 102.289 56.0458 104.707 60.0552 106.916C64.0646 109.125 67.5136 111.876 70.4021 115.253C73.8942 119.921 75.6186 125.507 75.6186 131.926C75.6186 138.345 73.9804 144.055 70.747 149.057C67.4705 154.017 62.9006 157.977 56.9942 160.895C50.9586 163.813 44.2762 165.272 37.0334 165.272C22.9789 165.272 10.7782 161.77 0.474376 154.726L0.689936 127.09C12.0284 139.095 23.7549 145.097 35.8694 145.097C41.1721 145.097 45.5264 143.889 48.9323 141.471C52.3382 139.053 54.0195 136.094 54.0195 132.593C54.0195 128.216 51.2172 124.84 45.6127 122.505H45.8282L32.8946 118.129H33.1102C24.9189 115.92 18.8832 113.835 14.96 111.751C11.0368 109.709 7.7172 106.999 4.95803 103.623C1.6384 99.5382 -0.0429688 94.2445 -0.0429688 87.8254C-0.0429688 81.4063 1.72462 75.8208 5.30292 70.6938L5.34604 70.6521Z" fill="#1E1E1C"></path><path d="M90.6648 29.845C93.1653 27.3441 96.14 26.1353 99.6321 26.1353C103.124 26.1353 106.142 27.3857 108.729 29.845C111.315 32.346 112.609 35.2638 112.609 38.6401C112.609 42.0164 111.315 44.8925 108.729 47.3101C106.142 49.7276 103.124 50.9364 99.6321 50.9364C96.14 50.9364 93.1653 49.7276 90.6648 47.3101C88.1643 44.8925 86.9141 42.0164 86.9141 38.6401C86.9141 35.2638 88.1643 32.346 90.6648 29.845ZM110.755 55.73V164.563H88.7248V55.73H110.755Z" fill="#1E1E1C"></path><path d="M145.244 65.4003C149.469 62.3158 154.298 59.9398 159.644 58.2725C165.033 56.6052 170.637 55.7299 176.544 55.7299C184.562 55.7299 192.064 57.3138 199.005 60.44C205.946 63.5662 211.723 68.068 216.25 73.9452C219.569 78.4886 221.984 83.4072 223.493 88.7426C225.002 94.078 225.778 100.497 225.778 107.958V164.563H204.006V108.834C204.006 103.415 203.618 99.0382 202.885 95.6619C202.109 92.2856 200.902 89.5345 199.264 87.3254C193.357 79.8642 185.726 76.1544 176.328 76.1544C163.308 76.1544 153.091 81.8649 145.675 93.286V164.605H123.904V55.5215H145.244V65.4003Z" fill="#1E1E1C"></path><path d="M343.344 159.061C343.344 167.856 342.87 174.692 341.964 179.569C341.059 184.446 339.464 188.739 337.179 192.407C332.954 200.327 326.703 206.371 318.468 210.623C310.234 214.874 300.663 217 289.756 217C278.848 217 268.631 214.457 259.448 209.414C250.308 204.37 243.152 197.368 238.021 188.447L255.482 176.151C258.801 182.862 263.414 187.989 269.321 191.49C275.227 194.992 282.125 196.742 289.971 196.742C297.085 196.742 302.948 195.575 307.561 193.241C312.174 190.907 315.752 187.322 318.339 182.487C319.546 179.986 320.408 177.068 320.969 173.692C321.486 170.316 321.745 165.564 321.745 159.436V156.143C312.519 162.729 302.129 166.022 290.661 166.022C279.926 166.022 270.14 163.396 261.388 158.144C252.593 152.892 245.868 145.723 241.169 136.636C236.944 129.05 234.831 120.463 234.831 110.959C234.831 102.79 236.599 94.9532 240.177 87.492C243.712 80.0308 248.67 73.445 255.051 67.7345C259.577 63.9413 264.88 61.0235 270.959 58.9394C276.995 56.897 283.375 55.8549 290.014 55.8549C302.129 55.8549 312.864 59.1478 322.262 65.7337V55.6465H343.387V158.978L343.344 159.061ZM321.788 92.3689C318.598 87.7005 314.071 83.824 308.165 80.7395C302.258 77.6549 296.266 76.1127 290.23 76.1127C283.289 76.1127 277.038 78.0301 271.519 81.8232C266.001 85.6163 262.035 90.0764 259.62 95.2033C257.508 100.039 256.43 105.291 256.43 111.001C256.43 117.003 257.637 122.505 260.052 127.466C262.466 132.426 265.872 136.386 270.269 139.304C277.383 143.555 284.108 145.681 290.489 145.681C296.869 145.681 302.56 144.097 308.078 140.971C313.597 137.845 318.167 133.385 321.788 127.716V92.3689Z" fill="#1E1E1C"></path><path d="M430.043 154.267C425.818 157.185 421.118 159.478 415.988 161.187C410.858 162.854 405.684 163.688 400.554 163.688C391.457 163.688 383.137 161.645 375.592 157.56C368.004 153.475 362.486 148.057 359.037 141.304C354.64 133.551 352.441 123.756 352.441 111.918V55.7295H373.997V109.917C373.997 115.627 374.385 120.171 375.118 123.506C375.894 126.882 377.144 129.925 378.998 132.717C384.43 139.887 391.63 143.472 400.554 143.472C406.288 143.472 411.806 141.929 417.109 138.845C422.412 135.76 426.551 131.675 429.611 126.548V55.7295H451.167V163.896H430.043V154.226V154.267Z" fill="#1E1E1C"></path><path d="M486.778 0V164.563H464.748V0H486.778Z" fill="#1E1E1C"></path><path d="M503.462 86.033C506.997 78.4468 512.042 71.986 518.552 66.734C523.251 63.0659 528.597 60.2315 534.675 58.189C540.711 56.1466 546.919 55.1045 553.3 55.1045C565.414 55.1045 576.149 58.3974 585.548 64.9833V55.563H606.673V165.272H585.548V155.393C581.323 158.603 576.494 161.062 571.148 162.729C565.759 164.396 560.068 165.272 554.033 165.272C543.298 165.272 533.511 162.687 524.76 157.477C515.965 152.267 509.239 145.139 504.54 136.094C500.315 128.466 498.203 119.838 498.203 110.209C498.203 101.706 499.97 93.661 503.549 86.0747L503.462 86.033ZM523.337 126.507C525.751 131.425 529.243 135.469 533.77 138.678L533.555 138.47C540.496 142.847 547.264 145.056 553.774 145.056C560.284 145.056 565.845 143.472 571.364 140.346C576.882 137.219 581.452 132.759 585.073 127.049V91.7436C581.883 87.0751 577.356 83.1569 571.45 79.9891C565.544 76.8629 559.551 75.2789 553.515 75.2789C546.574 75.2789 540.323 77.1963 534.805 80.9894C529.286 84.7826 525.32 89.2426 522.906 94.3696C520.793 99.2048 519.716 104.457 519.716 110.167C519.716 116.17 520.923 121.63 523.337 126.507Z" fill="#1E1E1C"></path><path d="M670.177 76.3624C664.572 76.3624 659.183 78.3215 653.967 82.198C648.75 86.0745 644.87 91.0764 642.283 97.2454V164.605H620.253V55.7295H642.283V66.2752C646.379 62.8989 650.819 60.3146 655.691 58.4805C660.52 56.6465 665.434 55.7295 670.435 55.7295C675.135 55.7295 678.152 55.9379 679.532 56.3964V76.3624H670.22H670.177Z" fill="#1E1E1C"></path><path d="M688.542 55.7295H703.976V28.5107H726.006V55.7295H749.847V76.3624H726.006V126.84C726.006 130.341 726.265 133.176 726.782 135.302C727.3 137.428 728.248 139.303 729.628 140.887L729.412 140.679C732.732 144.347 737.345 146.181 743.251 146.181C744.027 146.181 747.562 145.806 753.9 145.097V166.147L743.467 166.814H743.251C736.741 166.814 730.792 165.688 725.317 163.396C719.884 161.145 715.487 157.935 712.167 153.851C706.735 147.723 703.976 138.553 703.976 126.423V76.4041H688.542V55.7712V55.7295Z" fill="#E40D7E"></path><path d="M781.147 65.6083C785.372 62.6905 790.201 60.398 795.546 58.8141C800.935 57.1884 806.324 56.3965 811.757 56.3965C819.603 56.3965 827.018 58.0221 834.002 61.2316C840.943 64.4412 846.634 68.9013 851.032 74.6118C854.351 79.1552 856.766 84.0738 858.274 89.4091C859.783 94.7445 860.559 101.08 860.559 108.375V164.563H839.003V109.25C839.003 104.123 838.615 100.038 837.882 96.9537C837.15 93.8692 835.77 90.8263 833.787 87.7418C831.502 84.2405 828.441 81.5311 824.604 79.6137C820.724 77.6963 816.413 76.7793 811.541 76.7793C805.333 76.7793 799.556 78.2382 794.167 81.156C788.778 84.0737 784.423 88.242 781.104 93.6608V164.521H759.548V2.20898H781.104V65.6083H781.147Z" fill="#E40D7E"></path><path d="M875.648 29.845C878.149 27.3441 881.123 26.1353 884.616 26.1353C888.108 26.1353 891.125 27.3857 893.712 29.845C896.299 32.346 897.549 35.2638 897.549 38.6401C897.549 42.0164 896.256 44.8925 893.712 47.3101C891.125 49.7276 888.108 50.9364 884.616 50.9364C881.123 50.9364 878.149 49.7276 875.648 47.3101C873.148 44.8925 871.897 42.0164 871.897 38.6401C871.897 35.2638 873.148 32.346 875.648 29.845ZM895.738 55.73V164.563H873.708V55.73H895.738Z" fill="#E40D7E"></path><path d="M930.228 65.4003C934.453 62.3158 939.282 59.9398 944.628 58.2725C950.017 56.6052 955.621 55.7299 961.527 55.7299C969.546 55.7299 977.048 57.3138 983.989 60.44C990.93 63.5662 996.707 68.068 1001.23 73.9452C1004.55 78.4886 1006.97 83.4072 1008.48 88.7426C1009.99 94.078 1010.76 100.497 1010.76 107.958V164.563H988.99V108.834C988.99 103.415 988.602 99.0382 987.869 95.6619C987.093 92.2856 985.886 89.5345 984.248 87.3254C978.341 79.8642 970.71 76.1544 961.312 76.1544C948.292 76.1544 938.074 81.8649 930.659 93.286V164.605H908.888V55.5215H930.228V65.4003Z" fill="#E40D7E"></path><path d="M1128.37 159.061C1128.37 167.856 1127.94 174.692 1126.99 179.569C1126.09 184.446 1124.49 188.739 1122.21 192.407C1117.98 200.327 1111.73 206.371 1103.5 210.623C1095.26 214.874 1085.69 217 1074.78 217C1063.88 217 1053.66 214.457 1044.48 209.414C1035.34 204.37 1028.18 197.368 1023.05 188.447L1040.51 176.151C1043.83 182.862 1048.44 187.989 1054.35 191.49C1060.25 194.992 1067.11 196.742 1075 196.742C1082.11 196.742 1087.98 195.575 1092.59 193.241C1097.2 190.907 1100.78 187.322 1103.37 182.487C1104.57 179.986 1105.44 177.068 1106 173.692C1106.51 170.316 1106.77 165.564 1106.77 159.436V156.143C1097.55 162.729 1087.16 166.022 1075.69 166.022C1064.95 166.022 1055.17 163.396 1046.42 158.144C1037.62 152.892 1030.9 145.723 1026.2 136.636C1021.97 129.05 1019.86 120.463 1019.86 110.959C1019.86 102.79 1021.63 94.9532 1025.2 87.492C1028.74 80.0308 1033.7 73.445 1040.08 67.7345C1044.6 63.9413 1049.91 61.0235 1055.94 58.9394C1061.98 56.897 1068.36 55.8549 1075 55.8549C1087.11 55.8549 1097.85 59.1478 1107.2 65.7337V55.6465H1128.33V158.978L1128.37 159.061ZM1106.82 92.3689C1103.63 87.7005 1099.1 83.824 1093.19 80.7395C1087.29 77.6549 1081.34 76.1127 1075.26 76.1127C1068.27 76.1127 1062.07 78.0301 1056.55 81.8232C1051.03 85.6163 1047.06 90.0764 1044.65 95.2033C1042.54 100.039 1041.46 105.291 1041.46 111.001C1041.46 117.003 1042.66 122.505 1045.08 127.466C1047.49 132.426 1050.9 136.386 1055.3 139.304C1062.41 143.555 1069.14 145.681 1075.52 145.681C1081.9 145.681 1087.59 144.097 1093.11 140.971C1098.62 137.845 1103.19 133.385 1106.86 127.716V92.3689H1106.82Z" fill="#E40D7E"></path><path d="M1142.77 70.6521C1146.31 65.5252 1151.26 61.5653 1157.64 58.8142C1164.15 56.3133 1170.19 55.1045 1175.79 55.1045C1185.32 55.1045 1195.54 57.6471 1206.45 62.7741L1206.23 87.1168C1198.99 82.2816 1193.47 79.1137 1189.76 77.5715C1186.06 76.0292 1181.87 75.2789 1177.17 75.2789C1171.87 75.2789 1167.56 76.446 1164.24 78.7803C1160.92 81.1145 1159.24 84.0323 1159.24 87.5753C1159.24 89.7845 1160.32 91.6602 1162.43 93.2858C1166.05 95.62 1171.53 97.7459 1178.77 99.6633C1187.22 102.289 1193.47 104.707 1197.48 106.916C1201.49 109.125 1204.94 111.876 1207.78 115.253C1211.28 119.921 1213 125.507 1213 131.926C1213 138.345 1211.36 144.055 1208.13 149.057C1204.9 154.017 1200.28 157.977 1194.42 160.895C1188.38 163.813 1181.7 165.272 1174.46 165.272C1160.4 165.272 1148.2 161.77 1137.9 154.726L1138.11 127.09C1149.45 139.095 1161.18 145.097 1173.29 145.097C1178.6 145.097 1182.95 143.889 1186.36 141.471C1189.76 139.053 1191.44 136.094 1191.44 132.593C1191.44 128.216 1188.64 124.84 1183.04 122.505H1183.25L1170.32 118.129H1170.53C1162.39 115.92 1156.31 113.835 1152.38 111.751C1148.46 109.709 1145.14 106.999 1142.38 103.623C1139.06 99.5382 1137.38 94.2445 1137.38 87.8254C1137.38 81.4063 1139.15 75.8208 1142.73 70.6938L1142.77 70.6521Z" fill="#E40D7E"></path></g><defs><clipPath id="clip0_243_934"><rect width="1213" height="217" fill="white"></rect></clipPath></defs></svg>
